<?xml version="1.0" encoding="UTF-8" standalone="no"?>
<!-- Created with Inkscape (http://www.inkscape.org/) -->

<svg
   width="150.81354mm"
   height="29.05125mm"
   viewBox="0 0 150.81354 29.05125"
   version="1.1"
   id="svg1"
   xml:space="preserve"
   xmlns:inkscape="http://www.inkscape.org/namespaces/inkscape"
   xmlns:sodipodi="http://sodipodi.sourceforge.net/DTD/sodipodi-0.dtd"
   xmlns="http://www.w3.org/2000/svg"
   xmlns:svg="http://www.w3.org/2000/svg"><sodipodi:namedview
     id="namedview1"
     pagecolor="#ffffff"
     bordercolor="#000000"
     borderopacity="0.25"
     inkscape:showpageshadow="2"
     inkscape:pageopacity="0.0"
     inkscape:pagecheckerboard="0"
     inkscape:deskcolor="#d1d1d1"
     inkscape:document-units="mm" /><defs
     id="defs1" /><g
     inkscape:label="Ebene 1"
     inkscape:groupmode="layer"
     id="layer1"
     transform="translate(-17.9,-29.038951)"><path
       id="p"
       class="st0"
       d="m 84.814154,58.090201 3.360208,-21.219583 h 4.894791 l -0.3175,2.037291 c 0.740834,-0.846666 1.534584,-1.455208 2.38125,-1.878541 0.873125,-0.423334 1.799167,-0.635 2.778125,-0.635 1.693334,0 3.095622,0.635 4.153962,1.905 1.08479,1.27 1.61396,2.910416 1.61396,4.92125 0,2.54 -0.74084,4.656666 -2.19605,6.323541 -1.4552,1.666875 -3.307288,2.513542 -5.50333,2.513542 -0.978958,0 -1.878542,-0.211667 -2.69875,-0.635 -0.79375,-0.423333 -1.561042,-1.084792 -2.275417,-1.957917 0,0.47625 0,0.899584 -0.02646,1.296459 -0.02646,0.396875 -0.05292,0.740833 -0.105833,1.031875 l -0.9525,6.270624 z M 98.36082,43.908534 c 0,-0.9525 -0.291042,-1.693333 -0.873125,-2.275416 -0.582083,-0.582084 -1.322917,-0.846667 -2.275417,-0.846667 -1.031875,0 -1.905,0.396875 -2.592916,1.190625 -0.687917,0.79375 -1.031875,1.799167 -1.031875,2.989792 0,0.899583 0.291041,1.640416 0.846666,2.196041 0.582084,0.555625 1.322917,0.846667 2.248959,0.846667 1.058333,0 1.931458,-0.396875 2.619375,-1.164167 0.740833,-0.767291 1.058333,-1.74625 1.058333,-2.936875 z"
       style="stroke-width:0.264583" /><path
       id="h"
       class="st0"
       d="m 103.96999,51.607909 3.62479,-22.568958 h 5.10646 l -1.32292,7.911042 c -0.0529,0.396875 -0.13229,0.767291 -0.18521,1.137708 -0.0794,0.370417 -0.15875,0.740833 -0.26458,1.11125 0.79375,-0.978958 1.61396,-1.666875 2.40771,-2.116667 0.79375,-0.449791 1.66687,-0.661458 2.61937,-0.661458 1.53459,0 2.69875,0.423333 3.54542,1.243542 0.84667,0.820208 1.27,1.957916 1.27,3.439583 0,0.502708 -0.0794,1.349375 -0.26458,2.513542 0,0.105833 -0.0265,0.185208 -0.0265,0.264583 l -1.27,7.725833 h -5.21229 l 1.21708,-7.805208 c 0.0265,-0.211667 0.0794,-0.449792 0.10583,-0.661458 0.0265,-0.211667 0.0265,-0.396875 0.0265,-0.555625 0,-0.635 -0.15875,-1.137709 -0.50271,-1.455209 -0.34396,-0.3175 -0.84666,-0.502708 -1.50812,-0.502708 -0.89959,0 -1.61396,0.3175 -2.11667,0.978958 -0.50271,0.661459 -0.87312,1.693334 -1.11125,3.122084 l -1.05833,6.852708 h -5.08 z"
       style="stroke-width:0.264583" /><path
       id="h-5"
       class="st0"
       d="m 68.900039,51.607909 2.301874,-14.657916 h 5.106459 v 0 c -0.05292,0.396875 -0.132292,0.767291 -0.185208,1.137708 -0.07937,0.370417 -0.15875,0.740833 -0.264584,1.11125 0.79375,-0.978958 1.613959,-1.666875 2.407709,-2.116667 0.79375,-0.449791 1.666874,-0.661458 2.619374,-0.661458 1.534584,0 2.69875,0.423333 3.545417,1.243542 0.846669,0.820208 1.269999,1.957916 1.269999,3.439583 0,0.502708 -0.0794,1.349375 -0.26458,2.513542 0,0.105833 -0.0265,0.185208 -0.0265,0.264583 l -1.270001,7.725833 h -5.212291 l 1.217083,-7.805208 c 0.02646,-0.211667 0.07937,-0.449792 0.105833,-0.661458 0.02646,-0.211667 0.02646,-0.396875 0.02646,-0.555625 0,-0.635 -0.15875,-1.137709 -0.502708,-1.455209 -0.343959,-0.3175 -0.846667,-0.502708 -1.508125,-0.502708 -0.899584,0 -1.613959,0.3175 -2.116667,0.978958 -0.502708,0.661459 -0.873125,1.693334 -1.11125,3.122084 L 73.98,51.581451 H 68.9 Z"
       style="fill:#fc7c00;fill-opacity:1;stroke-width:0.264583"
       sodipodi:nodetypes="ccccccsssscccccssssscccc" /><path
       id="a"
       class="st0"
       d="m 132.67728,49.623534 c -0.71437,0.820209 -1.50812,1.455209 -2.35479,1.878542 -0.87313,0.423333 -1.79917,0.635 -2.80458,0.635 -1.69334,0 -3.06917,-0.635 -4.15396,-1.905 -1.08479,-1.27 -1.61396,-2.910417 -1.61396,-4.947708 0,-2.54 0.74083,-4.656667 2.19604,-6.323542 1.45521,-1.666875 3.30729,-2.513542 5.50333,-2.513542 1.03188,0 1.93146,0.211667 2.72521,0.635 0.79375,0.423334 1.53459,1.084792 2.19604,1.957917 l 0.34396,-2.116667 h 4.92125 l -2.32833,14.710834 h -4.84188 z m -5.715,-4.841875 c 0,0.9525 0.29104,1.693334 0.84667,2.275417 0.58208,0.582083 1.32291,0.846667 2.27541,0.846667 1.03188,0 1.87855,-0.396875 2.56646,-1.190625 0.68792,-0.79375 1.03188,-1.799167 1.03188,-3.01625 0,-0.899584 -0.29104,-1.640417 -0.84667,-2.2225 -0.58208,-0.555625 -1.32292,-0.846667 -2.24896,-0.846667 -1.05833,0 -1.905,0.396875 -2.59291,1.190625 -0.68792,0.767292 -1.03188,1.74625 -1.03188,2.963333 z"
       style="stroke-width:0.264583" /><path
       id="s"
       class="st0"
       d="m 151.85957,37.955409 -1.50812,3.307292 c -0.66146,-0.47625 -1.29646,-0.820208 -1.85209,-1.031875 -0.55562,-0.211667 -1.11125,-0.3175 -1.66687,-0.3175 -0.47625,0 -0.84667,0.105833 -1.16417,0.3175 -0.3175,0.211667 -0.44979,0.47625 -0.44979,0.79375 0,0.449792 0.50271,0.873125 1.50813,1.243542 0.44979,0.15875 0.79375,0.3175 1.05833,0.423333 1.40229,0.608542 2.38125,1.243542 2.96333,1.905 0.55563,0.661458 0.84667,1.481667 0.84667,2.460625 0,1.534583 -0.60854,2.778125 -1.79917,3.730625 -1.19062,0.926042 -2.77812,1.402292 -4.78896,1.402292 -1.1377,0 -2.19604,-0.15875 -3.22791,-0.449792 -1.03188,-0.291042 -2.01084,-0.740833 -2.98979,-1.349375 l 1.74625,-3.518958 c 0.97895,0.608541 1.82562,1.031875 2.48708,1.296458 0.66146,0.264583 1.29646,0.370417 1.905,0.370417 0.50271,0 0.92604,-0.105834 1.24354,-0.343959 0.3175,-0.238125 0.47625,-0.529166 0.47625,-0.873125 0,-0.555625 -0.71437,-1.11125 -2.14312,-1.693333 -0.42334,-0.185208 -0.7673,-0.3175 -0.97896,-0.396875 -1.13771,-0.502708 -1.93146,-1.058333 -2.40771,-1.640417 -0.47625,-0.582083 -0.71438,-1.322916 -0.71438,-2.2225 0,-1.402291 0.58209,-2.566458 1.77271,-3.518958 1.16417,-0.926042 2.67229,-1.402292 4.52438,-1.402292 0.92604,0 1.85208,0.132292 2.72521,0.396875 0.84666,0.238125 1.66687,0.608542 2.43416,1.11125 z"
       style="stroke-width:0.264583" /><path
       id="e"
       class="st0"
       d="m 157.54811,45.496034 v 0.343959 c 0,0.926041 0.23813,1.640416 0.71438,2.116666 0.47625,0.47625 1.16417,0.740834 2.09021,0.740834 0.635,0 1.24354,-0.132292 1.82562,-0.396875 0.55563,-0.264584 1.16417,-0.687917 1.82563,-1.296459 l 2.80458,2.831042 c -0.84667,0.79375 -1.79917,1.402292 -2.88396,1.799167 -1.08479,0.396875 -2.30187,0.608541 -3.65125,0.608541 -2.40771,0 -4.25979,-0.635 -5.58271,-1.905 -1.32291,-1.27 -1.98437,-3.069166 -1.98437,-5.371041 0,-2.513542 0.79375,-4.550834 2.35479,-6.138334 1.5875,-1.561041 3.62479,-2.354791 6.11188,-2.354791 2.27541,0 4.10104,0.687916 5.47687,2.090208 1.37583,1.375833 2.06375,3.227917 2.06375,5.529792 0,0.211666 -0.0265,0.582083 -0.0794,1.11125 -0.0265,0.15875 -0.0265,0.291041 -0.0529,0.343958 -0.0265,-0.05292 -11.03313,-0.05292 -11.03313,-0.05292 z m 6.27063,-2.989791 c -0.0529,-0.79375 -0.3175,-1.42875 -0.79375,-1.905 -0.47625,-0.47625 -1.13771,-0.687917 -1.93146,-0.687917 -0.71437,0 -1.34937,0.238125 -1.93146,0.687917 -0.55562,0.449791 -1.00541,1.084791 -1.29646,1.905 0.0265,0 5.95313,0 5.95313,0 z"
       style="stroke-width:0.264583" /><path
       id="path1"
       class="st0"
       d="m 32.7,58.090201 3.360208,-21.219583 h 4.894791 l -0.3175,2.037291 c 0.740834,-0.846666 1.534584,-1.455208 2.38125,-1.878541 0.873125,-0.423334 1.799167,-0.635 2.778125,-0.635 1.693334,0 3.095625,0.635 4.153959,1.905 1.084791,1.27 1.613958,2.910416 1.613958,4.92125 0,2.54 -0.740833,4.656666 -2.196042,6.323541 -1.455208,1.666875 -3.307291,2.513542 -5.503333,2.513542 -0.978958,0 -1.878542,-0.211667 -2.69875,-0.635 -0.79375,-0.423333 -1.561042,-1.084792 -2.275417,-1.957917 0,0.47625 0,0.899584 -0.02646,1.296459 -0.02646,0.396875 -0.05292,0.740833 -0.105833,1.031875 l -0.9525,6.270624 z M 46.246666,43.908534 c 0,-0.9525 -0.291042,-1.693333 -0.873125,-2.275416 -0.582083,-0.582084 -1.322917,-0.846667 -2.275417,-0.846667 -1.031875,0 -1.905,0.396875 -2.592916,1.190625 -0.687917,0.79375 -1.031875,1.799167 -1.031875,2.989792 0,0.899583 0.291041,1.640416 0.846666,2.196041 0.582084,0.555625 1.322917,0.846667 2.248959,0.846667 1.058333,0 1.931458,-0.396875 2.619375,-1.164167 0.740833,-0.767291 1.058333,-1.74625 1.058333,-2.936875 z"
       style="fill:#fc7c00;fill-opacity:1;stroke-width:0.264583" /><path
       id="path2"
       class="st0"
       d="m 57.579623,45.496034 v 0.343959 c 0,0.926041 0.23813,1.640416 0.71438,2.116666 0.47625,0.47625 1.16417,0.740834 2.09021,0.740834 0.635,0 1.24354,-0.132292 1.82562,-0.396875 0.55563,-0.264584 1.16417,-0.687917 1.82563,-1.296459 l 2.80458,2.831042 c -0.84667,0.79375 -1.79917,1.402292 -2.88396,1.799167 -1.08479,0.396875 -2.30187,0.608541 -3.65125,0.608541 -2.40771,0 -4.25979,-0.635 -5.58271,-1.905 -1.32291,-1.27 -1.98437,-3.069166 -1.98437,-5.371041 0,-2.513542 0.79375,-4.550834 2.35479,-6.138334 1.5875,-1.561041 3.62479,-2.354791 6.11188,-2.354791 2.27541,0 4.10104,0.687916 5.47687,2.090208 1.37583,1.375833 2.06375,3.227917 2.06375,5.529792 0,0.211666 -0.0265,0.582083 -0.0794,1.11125 -0.0265,0.15875 -0.0265,0.291041 -0.0529,0.343958 -0.0265,-0.05292 -11.03313,-0.05292 -11.03313,-0.05292 z m 6.27063,-2.989791 c -0.0529,-0.79375 -0.3175,-1.42875 -0.79375,-1.905 -0.47625,-0.47625 -1.13771,-0.687917 -1.93146,-0.687917 -0.71437,0 -1.34937,0.238125 -1.93146,0.687917 -0.55562,0.449791 -1.00541,1.084791 -1.29646,1.905 0.0265,0 5.95313,0 5.95313,0 z"
       style="fill:#fc7c00;fill-opacity:1;stroke-width:0.264583" /><path
       id="text2"
       style="font-style:italic;font-weight:bold;font-size:21.4381px;font-family:Arial;-inkscape-font-specification:'Arial, Bold Italic';fill:#fc7c00;stroke-width:0.402115;stroke-linecap:round;stroke-linejoin:round"
       d="m 26.41886,36.473743 c -2.548121,0 -4.607156,0.827668 -6.177401,2.482535 C 18.680619,40.601744 17.9,42.811029 17.9,45.584814 c 0,1.184735 0.268133,2.294187 0.804085,3.328479 0.535951,1.034294 1.348937,1.833628 2.439645,2.397787 1.090708,0.56416 2.341309,0.84646 3.751709,0.84646 2.604538,0 4.682807,-0.883818 6.234245,-2.651518 1.551438,-1.7677 2.326989,-3.864686 2.326989,-6.290572 0,-2.059183 -0.620752,-3.695285 -1.861902,-4.908228 -1.241152,-1.222346 -2.966287,-1.833479 -5.175911,-1.833479 z m -0.09405,3.747058 c 0.7536,0 1.366677,0.248118 1.839681,0.745174 0.481023,0.48904 0.72192,1.142868 0.72192,1.960604 0,1.643492 -0.457034,3.038322 -1.370976,4.184757 -0.641363,0.80972 -1.43524,1.214396 -2.38125,1.214396 -0.753601,0 -1.378799,-0.268494 -1.875855,-0.805635 -0.497055,-0.537141 -0.745691,-1.26267 -0.745691,-2.176611 0,-0.737568 0.160426,-1.54305 0.481108,-2.416907 0.320681,-0.881873 0.769462,-1.551692 1.346688,-2.008663 0.577226,-0.464989 1.238791,-0.697115 1.984375,-0.697115 z" /></g><style
     type="text/css"
     id="style1">
	.st0{fill:#007a50;}
	.st1{fill:#FC7C00;}
</style></svg>
